<mxfile host="app.diagrams.net" agent="Mozilla/5.0 (X11; Linux x86_64) AppleWebKit/537.36 (KHTML, like Gecko) Chrome/134.0.0.0 Safari/537.36" version="27.1.5">
  <diagram name="Page-1" id="hJz45N0BC77foQ6LcJua">
    <mxGraphModel grid="1" page="1" gridSize="10" guides="1" tooltips="1" connect="1" arrows="1" fold="1" pageScale="1" pageWidth="850" pageHeight="1100" math="0" shadow="0">
      <root>
        <mxCell id="0" />
        <mxCell id="1" parent="0" />
        <mxCell id="4ptxb63NITl1WysqNmvm-191" value="Expression" style="shape=module;align=left;spacingLeft=20;align=center;verticalAlign=top;whiteSpace=wrap;html=1;movable=0;resizable=0;rotatable=0;deletable=0;editable=0;locked=1;connectable=0;" vertex="1" parent="1">
          <mxGeometry x="-350" y="1100" width="1120" height="710" as="geometry" />
        </mxCell>
        <mxCell id="4ptxb63NITl1WysqNmvm-187" value="Statement" style="shape=module;align=left;spacingLeft=20;align=center;verticalAlign=top;whiteSpace=wrap;html=1;movable=0;resizable=0;rotatable=0;deletable=0;editable=0;locked=1;connectable=0;" vertex="1" parent="1">
          <mxGeometry x="620" y="300.5" width="920" height="669.5" as="geometry" />
        </mxCell>
        <mxCell id="4ptxb63NITl1WysqNmvm-184" value="Declaration" style="shape=module;align=left;spacingLeft=20;align=center;verticalAlign=top;whiteSpace=wrap;html=1;movable=0;resizable=0;rotatable=0;deletable=0;editable=0;locked=1;connectable=0;" vertex="1" parent="1">
          <mxGeometry x="-120" y="300.5" width="340" height="419.5" as="geometry" />
        </mxCell>
        <mxCell id="4ptxb63NITl1WysqNmvm-1" value="" style="text;strokeColor=none;fillColor=none;align=left;verticalAlign=middle;spacingTop=-1;spacingLeft=4;spacingRight=4;rotatable=0;labelPosition=right;points=[];portConstraint=eastwest;" vertex="1" parent="1">
          <mxGeometry x="320" y="580" width="20" height="14" as="geometry" />
        </mxCell>
        <mxCell id="4ptxb63NITl1WysqNmvm-2" value="" style="text;strokeColor=none;fillColor=none;align=left;verticalAlign=middle;spacingTop=-1;spacingLeft=4;spacingRight=4;rotatable=0;labelPosition=right;points=[];portConstraint=eastwest;" vertex="1" parent="1">
          <mxGeometry x="320" y="580" width="20" height="14" as="geometry" />
        </mxCell>
        <mxCell id="4ptxb63NITl1WysqNmvm-3" value="" style="text;strokeColor=none;fillColor=none;align=left;verticalAlign=middle;spacingTop=-1;spacingLeft=4;spacingRight=4;rotatable=0;labelPosition=right;points=[];portConstraint=eastwest;" vertex="1" parent="1">
          <mxGeometry x="320" y="580" width="20" height="14" as="geometry" />
        </mxCell>
        <mxCell id="4ptxb63NITl1WysqNmvm-4" value="" style="text;strokeColor=none;fillColor=none;align=left;verticalAlign=middle;spacingTop=-1;spacingLeft=4;spacingRight=4;rotatable=0;labelPosition=right;points=[];portConstraint=eastwest;" vertex="1" parent="1">
          <mxGeometry x="320" y="580" width="20" height="14" as="geometry" />
        </mxCell>
        <mxCell id="4ptxb63NITl1WysqNmvm-5" value="" style="text;strokeColor=none;fillColor=none;align=left;verticalAlign=middle;spacingTop=-1;spacingLeft=4;spacingRight=4;rotatable=0;labelPosition=right;points=[];portConstraint=eastwest;" vertex="1" parent="1">
          <mxGeometry x="320" y="580" width="20" height="14" as="geometry" />
        </mxCell>
        <mxCell id="4ptxb63NITl1WysqNmvm-6" value="" style="text;strokeColor=none;fillColor=none;align=left;verticalAlign=middle;spacingTop=-1;spacingLeft=4;spacingRight=4;rotatable=0;labelPosition=right;points=[];portConstraint=eastwest;" vertex="1" parent="1">
          <mxGeometry x="320" y="580" width="20" height="14" as="geometry" />
        </mxCell>
        <mxCell id="4ptxb63NITl1WysqNmvm-7" value="" style="text;strokeColor=none;fillColor=none;align=left;verticalAlign=middle;spacingTop=-1;spacingLeft=4;spacingRight=4;rotatable=0;labelPosition=right;points=[];portConstraint=eastwest;" vertex="1" parent="1">
          <mxGeometry x="320" y="580" width="20" height="14" as="geometry" />
        </mxCell>
        <mxCell id="4ptxb63NITl1WysqNmvm-8" value="" style="text;strokeColor=none;fillColor=none;align=left;verticalAlign=middle;spacingTop=-1;spacingLeft=4;spacingRight=4;rotatable=0;labelPosition=right;points=[];portConstraint=eastwest;" vertex="1" parent="1">
          <mxGeometry x="320" y="580" width="20" height="14" as="geometry" />
        </mxCell>
        <mxCell id="4ptxb63NITl1WysqNmvm-11" value="Program" style="swimlane;fontStyle=1;align=center;verticalAlign=top;childLayout=stackLayout;horizontal=1;startSize=26;horizontalStack=0;resizeParent=1;resizeParentMax=0;resizeLast=0;collapsible=1;marginBottom=0;whiteSpace=wrap;html=1;" vertex="1" parent="1">
          <mxGeometry x="370" y="508" width="210" height="52" as="geometry" />
        </mxCell>
        <mxCell id="4ptxb63NITl1WysqNmvm-25" value="VariableDeclaration" style="swimlane;fontStyle=1;align=center;verticalAlign=top;childLayout=stackLayout;horizontal=1;startSize=26;horizontalStack=0;resizeParent=1;resizeParentMax=0;resizeLast=0;collapsible=1;marginBottom=0;whiteSpace=wrap;html=1;" vertex="1" parent="1">
          <mxGeometry x="-30" y="560" width="170" height="52" as="geometry" />
        </mxCell>
        <mxCell id="4ptxb63NITl1WysqNmvm-80" value="+ init: ?Expression" style="text;strokeColor=none;fillColor=none;align=left;verticalAlign=top;spacingLeft=4;spacingRight=4;overflow=hidden;rotatable=0;points=[[0,0.5],[1,0.5]];portConstraint=eastwest;whiteSpace=wrap;html=1;" vertex="1" parent="4ptxb63NITl1WysqNmvm-25">
          <mxGeometry y="26" width="170" height="26" as="geometry" />
        </mxCell>
        <mxCell id="4ptxb63NITl1WysqNmvm-29" value="WhileStatement" style="swimlane;fontStyle=1;align=center;verticalAlign=top;childLayout=stackLayout;horizontal=1;startSize=26;horizontalStack=0;resizeParent=1;resizeParentMax=0;resizeLast=0;collapsible=1;marginBottom=0;whiteSpace=wrap;html=1;" vertex="1" parent="1">
          <mxGeometry x="780" y="832" width="160" height="80" as="geometry" />
        </mxCell>
        <mxCell id="4ptxb63NITl1WysqNmvm-136" value="+ condition: Expression" style="text;strokeColor=none;fillColor=none;align=left;verticalAlign=top;spacingLeft=4;spacingRight=4;overflow=hidden;rotatable=0;points=[[0,0.5],[1,0.5]];portConstraint=eastwest;whiteSpace=wrap;html=1;" vertex="1" parent="4ptxb63NITl1WysqNmvm-29">
          <mxGeometry y="26" width="160" height="24" as="geometry" />
        </mxCell>
        <mxCell id="4ptxb63NITl1WysqNmvm-137" value="+ body: BlockStatement" style="text;strokeColor=none;fillColor=none;align=left;verticalAlign=top;spacingLeft=4;spacingRight=4;overflow=hidden;rotatable=0;points=[[0,0.5],[1,0.5]];portConstraint=eastwest;whiteSpace=wrap;html=1;" vertex="1" parent="4ptxb63NITl1WysqNmvm-29">
          <mxGeometry y="50" width="160" height="30" as="geometry" />
        </mxCell>
        <mxCell id="4ptxb63NITl1WysqNmvm-35" value="InitializerListExpression" style="swimlane;fontStyle=1;align=center;verticalAlign=top;childLayout=stackLayout;horizontal=1;startSize=26;horizontalStack=0;resizeParent=1;resizeParentMax=0;resizeLast=0;collapsible=1;marginBottom=0;whiteSpace=wrap;html=1;" vertex="1" parent="1">
          <mxGeometry x="350" y="1480" width="160" height="60" as="geometry" />
        </mxCell>
        <mxCell id="4ptxb63NITl1WysqNmvm-161" value="+ elements: Expression [ ]" style="text;strokeColor=none;fillColor=none;align=left;verticalAlign=top;spacingLeft=4;spacingRight=4;overflow=hidden;rotatable=0;points=[[0,0.5],[1,0.5]];portConstraint=eastwest;whiteSpace=wrap;html=1;" vertex="1" parent="4ptxb63NITl1WysqNmvm-35">
          <mxGeometry y="26" width="160" height="34" as="geometry" />
        </mxCell>
        <mxCell id="4ptxb63NITl1WysqNmvm-46" value="BlockStatement" style="swimlane;fontStyle=1;align=center;verticalAlign=top;childLayout=stackLayout;horizontal=1;startSize=26;horizontalStack=0;resizeParent=1;resizeParentMax=0;resizeLast=0;collapsible=1;marginBottom=0;whiteSpace=wrap;html=1;" vertex="1" parent="1">
          <mxGeometry x="670" y="668" width="200" height="52" as="geometry" />
        </mxCell>
        <mxCell id="4ptxb63NITl1WysqNmvm-47" value="+ body: (Declaration | Statement) [ ]" style="text;strokeColor=none;fillColor=none;align=left;verticalAlign=top;spacingLeft=4;spacingRight=4;overflow=hidden;rotatable=0;points=[[0,0.5],[1,0.5]];portConstraint=eastwest;whiteSpace=wrap;html=1;" vertex="1" parent="4ptxb63NITl1WysqNmvm-46">
          <mxGeometry y="26" width="200" height="26" as="geometry" />
        </mxCell>
        <mxCell id="4ptxb63NITl1WysqNmvm-48" value="CallExpression" style="swimlane;fontStyle=1;align=center;verticalAlign=top;childLayout=stackLayout;horizontal=1;startSize=26;horizontalStack=0;resizeParent=1;resizeParentMax=0;resizeLast=0;collapsible=1;marginBottom=0;whiteSpace=wrap;html=1;" vertex="1" parent="1">
          <mxGeometry x="-300" y="1380" width="180" height="108" as="geometry" />
        </mxCell>
        <mxCell id="4ptxb63NITl1WysqNmvm-49" value="+ callee: Identifirer" style="text;strokeColor=none;fillColor=none;align=left;verticalAlign=top;spacingLeft=4;spacingRight=4;overflow=hidden;rotatable=0;points=[[0,0.5],[1,0.5]];portConstraint=eastwest;whiteSpace=wrap;html=1;" vertex="1" parent="4ptxb63NITl1WysqNmvm-48">
          <mxGeometry y="26" width="180" height="26" as="geometry" />
        </mxCell>
        <mxCell id="4ptxb63NITl1WysqNmvm-110" value="+ arguments: Expression [ ]" style="text;strokeColor=none;fillColor=none;align=left;verticalAlign=top;spacingLeft=4;spacingRight=4;overflow=hidden;rotatable=0;points=[[0,0.5],[1,0.5]];portConstraint=eastwest;whiteSpace=wrap;html=1;" vertex="1" parent="4ptxb63NITl1WysqNmvm-48">
          <mxGeometry y="52" width="180" height="28" as="geometry" />
        </mxCell>
        <mxCell id="1zbk_YPQ8DsD-YpTSYAm-42" value="+ isNativeCallee: Expression [ ]" style="text;strokeColor=none;fillColor=none;align=left;verticalAlign=top;spacingLeft=4;spacingRight=4;overflow=hidden;rotatable=0;points=[[0,0.5],[1,0.5]];portConstraint=eastwest;whiteSpace=wrap;html=1;" vertex="1" parent="4ptxb63NITl1WysqNmvm-48">
          <mxGeometry y="80" width="180" height="28" as="geometry" />
        </mxCell>
        <mxCell id="4ptxb63NITl1WysqNmvm-52" value="ArrowFunctionExpression" style="swimlane;fontStyle=1;align=center;verticalAlign=top;childLayout=stackLayout;horizontal=1;startSize=26;horizontalStack=0;resizeParent=1;resizeParentMax=0;resizeLast=0;collapsible=1;marginBottom=0;whiteSpace=wrap;html=1;" vertex="1" parent="1">
          <mxGeometry x="-270" y="1240" width="160" height="94" as="geometry" />
        </mxCell>
        <mxCell id="4ptxb63NITl1WysqNmvm-103" value="+ params: Identifier [ ]" style="text;strokeColor=none;fillColor=none;align=left;verticalAlign=top;spacingLeft=4;spacingRight=4;overflow=hidden;rotatable=0;points=[[0,0.5],[1,0.5]];portConstraint=eastwest;whiteSpace=wrap;html=1;" vertex="1" parent="4ptxb63NITl1WysqNmvm-52">
          <mxGeometry y="26" width="160" height="26" as="geometry" />
        </mxCell>
        <mxCell id="4ptxb63NITl1WysqNmvm-106" value="+ body: Expression | &lt;span style=&quot;white-space: pre;&quot;&gt;&#x9;&lt;/span&gt;&lt;span style=&quot;white-space: pre;&quot;&gt;&#x9;&lt;/span&gt;BlockStatement" style="text;strokeColor=none;fillColor=none;align=left;verticalAlign=top;spacingLeft=4;spacingRight=4;overflow=hidden;rotatable=0;points=[[0,0.5],[1,0.5]];portConstraint=eastwest;whiteSpace=wrap;html=1;" vertex="1" parent="4ptxb63NITl1WysqNmvm-52">
          <mxGeometry y="52" width="160" height="42" as="geometry" />
        </mxCell>
        <mxCell id="4ptxb63NITl1WysqNmvm-54" value="BinaryExpression" style="swimlane;fontStyle=1;align=center;verticalAlign=top;childLayout=stackLayout;horizontal=1;startSize=26;horizontalStack=0;resizeParent=1;resizeParentMax=0;resizeLast=0;collapsible=1;marginBottom=0;whiteSpace=wrap;html=1;" vertex="1" parent="1">
          <mxGeometry x="80" y="1488" width="180" height="80" as="geometry" />
        </mxCell>
        <mxCell id="4ptxb63NITl1WysqNmvm-55" value="+ left, right: Expression" style="text;strokeColor=none;fillColor=none;align=left;verticalAlign=top;spacingLeft=4;spacingRight=4;overflow=hidden;rotatable=0;points=[[0,0.5],[1,0.5]];portConstraint=eastwest;whiteSpace=wrap;html=1;" vertex="1" parent="4ptxb63NITl1WysqNmvm-54">
          <mxGeometry y="26" width="180" height="24" as="geometry" />
        </mxCell>
        <mxCell id="4ptxb63NITl1WysqNmvm-120" value="+ operator: BinaryOperator" style="text;strokeColor=none;fillColor=none;align=left;verticalAlign=top;spacingLeft=4;spacingRight=4;overflow=hidden;rotatable=0;points=[[0,0.5],[1,0.5]];portConstraint=eastwest;whiteSpace=wrap;html=1;" vertex="1" parent="4ptxb63NITl1WysqNmvm-54">
          <mxGeometry y="50" width="180" height="30" as="geometry" />
        </mxCell>
        <mxCell id="4ptxb63NITl1WysqNmvm-62" value="ReturnStatement" style="swimlane;fontStyle=1;align=center;verticalAlign=top;childLayout=stackLayout;horizontal=1;startSize=26;horizontalStack=0;resizeParent=1;resizeParentMax=0;resizeLast=0;collapsible=1;marginBottom=0;whiteSpace=wrap;html=1;" vertex="1" parent="1">
          <mxGeometry x="1250" y="570" width="160" height="60" as="geometry" />
        </mxCell>
        <mxCell id="4ptxb63NITl1WysqNmvm-63" value="+ argument: Expression" style="text;strokeColor=none;fillColor=none;align=left;verticalAlign=top;spacingLeft=4;spacingRight=4;overflow=hidden;rotatable=0;points=[[0,0.5],[1,0.5]];portConstraint=eastwest;whiteSpace=wrap;html=1;" vertex="1" parent="4ptxb63NITl1WysqNmvm-62">
          <mxGeometry y="26" width="160" height="34" as="geometry" />
        </mxCell>
        <mxCell id="4ptxb63NITl1WysqNmvm-64" value="IfStatement" style="swimlane;fontStyle=1;align=center;verticalAlign=top;childLayout=stackLayout;horizontal=1;startSize=26;horizontalStack=0;resizeParent=1;resizeParentMax=0;resizeLast=0;collapsible=1;marginBottom=0;whiteSpace=wrap;html=1;" vertex="1" parent="1">
          <mxGeometry x="1040" y="792" width="190" height="120" as="geometry" />
        </mxCell>
        <mxCell id="4ptxb63NITl1WysqNmvm-144" value="+ condition: Expression" style="text;strokeColor=none;fillColor=none;align=left;verticalAlign=top;spacingLeft=4;spacingRight=4;overflow=hidden;rotatable=0;points=[[0,0.5],[1,0.5]];portConstraint=eastwest;whiteSpace=wrap;html=1;" vertex="1" parent="4ptxb63NITl1WysqNmvm-64">
          <mxGeometry y="26" width="190" height="24" as="geometry" />
        </mxCell>
        <mxCell id="4ptxb63NITl1WysqNmvm-65" value="+ body: BlockStatement" style="text;strokeColor=none;fillColor=none;align=left;verticalAlign=top;spacingLeft=4;spacingRight=4;overflow=hidden;rotatable=0;points=[[0,0.5],[1,0.5]];portConstraint=eastwest;whiteSpace=wrap;html=1;" vertex="1" parent="4ptxb63NITl1WysqNmvm-64">
          <mxGeometry y="50" width="190" height="26" as="geometry" />
        </mxCell>
        <mxCell id="4ptxb63NITl1WysqNmvm-145" value="+ alternate: BlockStatement | &lt;span style=&quot;white-space: pre;&quot;&gt;&#x9;&lt;/span&gt;IfStatement | null" style="text;strokeColor=none;fillColor=none;align=left;verticalAlign=top;spacingLeft=4;spacingRight=4;overflow=hidden;rotatable=0;points=[[0,0.5],[1,0.5]];portConstraint=eastwest;whiteSpace=wrap;html=1;" vertex="1" parent="4ptxb63NITl1WysqNmvm-64">
          <mxGeometry y="76" width="190" height="44" as="geometry" />
        </mxCell>
        <mxCell id="4ptxb63NITl1WysqNmvm-66" value="UnaryExpression" style="swimlane;fontStyle=1;align=center;verticalAlign=top;childLayout=stackLayout;horizontal=1;startSize=26;horizontalStack=0;resizeParent=1;resizeParentMax=0;resizeLast=0;collapsible=1;marginBottom=0;whiteSpace=wrap;html=1;" vertex="1" parent="1">
          <mxGeometry x="-210" y="1540" width="190" height="84" as="geometry" />
        </mxCell>
        <mxCell id="4ptxb63NITl1WysqNmvm-67" value="+ operator: UnaryOperatorType" style="text;strokeColor=none;fillColor=none;align=left;verticalAlign=top;spacingLeft=4;spacingRight=4;overflow=hidden;rotatable=0;points=[[0,0.5],[1,0.5]];portConstraint=eastwest;whiteSpace=wrap;html=1;" vertex="1" parent="4ptxb63NITl1WysqNmvm-66">
          <mxGeometry y="26" width="190" height="26" as="geometry" />
        </mxCell>
        <mxCell id="4ptxb63NITl1WysqNmvm-147" value="+ argument: Expression" style="text;strokeColor=none;fillColor=none;align=left;verticalAlign=top;spacingLeft=4;spacingRight=4;overflow=hidden;rotatable=0;points=[[0,0.5],[1,0.5]];portConstraint=eastwest;whiteSpace=wrap;html=1;" vertex="1" parent="4ptxb63NITl1WysqNmvm-66">
          <mxGeometry y="52" width="190" height="32" as="geometry" />
        </mxCell>
        <mxCell id="4ptxb63NITl1WysqNmvm-68" value="ExpressionStatement" style="swimlane;fontStyle=1;align=center;verticalAlign=top;childLayout=stackLayout;horizontal=1;startSize=26;horizontalStack=0;resizeParent=1;resizeParentMax=0;resizeLast=0;collapsible=1;marginBottom=0;whiteSpace=wrap;html=1;" vertex="1" parent="1">
          <mxGeometry x="1250" y="422.5" width="200" height="52" as="geometry" />
        </mxCell>
        <mxCell id="4ptxb63NITl1WysqNmvm-69" value="+ expression: Expression" style="text;strokeColor=none;fillColor=none;align=left;verticalAlign=top;spacingLeft=4;spacingRight=4;overflow=hidden;rotatable=0;points=[[0,0.5],[1,0.5]];portConstraint=eastwest;whiteSpace=wrap;html=1;" vertex="1" parent="4ptxb63NITl1WysqNmvm-68">
          <mxGeometry y="26" width="200" height="26" as="geometry" />
        </mxCell>
        <mxCell id="4ptxb63NITl1WysqNmvm-102" value="" style="endArrow=diamondThin;endFill=1;endSize=24;html=1;rounded=0;" edge="1" parent="1" source="4ptxb63NITl1WysqNmvm-121" target="4ptxb63NITl1WysqNmvm-54">
          <mxGeometry width="160" relative="1" as="geometry">
            <mxPoint x="-200" y="1633.871612903226" as="sourcePoint" />
            <mxPoint x="220" y="1734.1296774193552" as="targetPoint" />
            <Array as="points" />
          </mxGeometry>
        </mxCell>
        <mxCell id="4ptxb63NITl1WysqNmvm-121" value="&amp;lt;&amp;lt;Enum&amp;gt;&amp;gt;&lt;br&gt;BinaryOperator" style="swimlane;fontStyle=1;align=center;verticalAlign=top;childLayout=stackLayout;horizontal=1;startSize=42;horizontalStack=0;resizeParent=1;resizeParentMax=0;resizeLast=0;collapsible=1;marginBottom=0;whiteSpace=wrap;html=1;" vertex="1" parent="1">
          <mxGeometry x="90" y="1610" width="160" height="68" as="geometry" />
        </mxCell>
        <mxCell id="4ptxb63NITl1WysqNmvm-122" value="+, -, *, / ..." style="text;strokeColor=none;fillColor=none;align=left;verticalAlign=top;spacingLeft=4;spacingRight=4;overflow=hidden;rotatable=0;points=[[0,0.5],[1,0.5]];portConstraint=eastwest;whiteSpace=wrap;html=1;" vertex="1" parent="4ptxb63NITl1WysqNmvm-121">
          <mxGeometry y="42" width="160" height="26" as="geometry" />
        </mxCell>
        <mxCell id="4ptxb63NITl1WysqNmvm-154" value="&amp;lt;&amp;lt;Enum&amp;gt;&amp;gt;&lt;br&gt;UnaryOperatorType" style="swimlane;fontStyle=1;align=center;verticalAlign=top;childLayout=stackLayout;horizontal=1;startSize=42;horizontalStack=0;resizeParent=1;resizeParentMax=0;resizeLast=0;collapsible=1;marginBottom=0;whiteSpace=wrap;html=1;" vertex="1" parent="1">
          <mxGeometry x="-195" y="1669" width="160" height="68" as="geometry" />
        </mxCell>
        <mxCell id="4ptxb63NITl1WysqNmvm-155" value="! + -" style="text;strokeColor=none;fillColor=none;align=left;verticalAlign=top;spacingLeft=4;spacingRight=4;overflow=hidden;rotatable=0;points=[[0,0.5],[1,0.5]];portConstraint=eastwest;whiteSpace=wrap;html=1;" vertex="1" parent="4ptxb63NITl1WysqNmvm-154">
          <mxGeometry y="42" width="160" height="26" as="geometry" />
        </mxCell>
        <mxCell id="4ptxb63NITl1WysqNmvm-156" value="" style="endArrow=diamondThin;endFill=1;endSize=24;html=1;rounded=0;" edge="1" parent="1" source="4ptxb63NITl1WysqNmvm-154" target="4ptxb63NITl1WysqNmvm-66">
          <mxGeometry width="160" relative="1" as="geometry">
            <mxPoint x="60" y="1720" as="sourcePoint" />
            <mxPoint x="60" y="1654" as="targetPoint" />
            <Array as="points" />
          </mxGeometry>
        </mxCell>
        <mxCell id="4ptxb63NITl1WysqNmvm-165" value="" style="endArrow=diamondThin;endFill=1;endSize=24;html=1;rounded=0;" edge="1" parent="1" source="1zbk_YPQ8DsD-YpTSYAm-6" target="4ptxb63NITl1WysqNmvm-11">
          <mxGeometry width="160" relative="1" as="geometry">
            <mxPoint x="670" y="313.14285714285734" as="sourcePoint" />
            <mxPoint x="158.29000000000002" y="338" as="targetPoint" />
          </mxGeometry>
        </mxCell>
        <mxCell id="4ptxb63NITl1WysqNmvm-186" value="" style="endArrow=diamondThin;endFill=1;endSize=24;html=1;rounded=0;" edge="1" parent="1" source="1zbk_YPQ8DsD-YpTSYAm-1" target="4ptxb63NITl1WysqNmvm-11">
          <mxGeometry width="160" relative="1" as="geometry">
            <mxPoint x="131.00000000000045" y="310" as="sourcePoint" />
            <mxPoint x="158.29000000000002" y="338" as="targetPoint" />
          </mxGeometry>
        </mxCell>
        <mxCell id="8bszGqZw27wdrgXrDl6J-1" value="AssignmentStatement" style="swimlane;fontStyle=1;align=center;verticalAlign=top;childLayout=stackLayout;horizontal=1;startSize=26;horizontalStack=0;resizeParent=1;resizeParentMax=0;resizeLast=0;collapsible=1;marginBottom=0;whiteSpace=wrap;html=1;" vertex="1" parent="1">
          <mxGeometry x="1290" y="719" width="160" height="94" as="geometry" />
        </mxCell>
        <mxCell id="8bszGqZw27wdrgXrDl6J-2" value="+ left: MemberExpression" style="text;strokeColor=none;fillColor=none;align=left;verticalAlign=top;spacingLeft=4;spacingRight=4;overflow=hidden;rotatable=0;points=[[0,0.5],[1,0.5]];portConstraint=eastwest;whiteSpace=wrap;html=1;" vertex="1" parent="8bszGqZw27wdrgXrDl6J-1">
          <mxGeometry y="26" width="160" height="34" as="geometry" />
        </mxCell>
        <mxCell id="8bszGqZw27wdrgXrDl6J-3" value="+ right: Expression" style="text;strokeColor=none;fillColor=none;align=left;verticalAlign=top;spacingLeft=4;spacingRight=4;overflow=hidden;rotatable=0;points=[[0,0.5],[1,0.5]];portConstraint=eastwest;whiteSpace=wrap;html=1;" vertex="1" parent="8bszGqZw27wdrgXrDl6J-1">
          <mxGeometry y="60" width="160" height="34" as="geometry" />
        </mxCell>
        <mxCell id="1zbk_YPQ8DsD-YpTSYAm-1" value="Declaration" style="swimlane;fontStyle=1;align=center;verticalAlign=top;childLayout=stackLayout;horizontal=1;startSize=26;horizontalStack=0;resizeParent=1;resizeParentMax=0;resizeLast=0;collapsible=1;marginBottom=0;whiteSpace=wrap;html=1;" vertex="1" parent="1">
          <mxGeometry x="-30" y="380" width="170" height="78" as="geometry" />
        </mxCell>
        <mxCell id="1zbk_YPQ8DsD-YpTSYAm-2" value="- id: string" style="text;strokeColor=none;fillColor=none;align=left;verticalAlign=top;spacingLeft=4;spacingRight=4;overflow=hidden;rotatable=0;points=[[0,0.5],[1,0.5]];portConstraint=eastwest;whiteSpace=wrap;html=1;" vertex="1" parent="1zbk_YPQ8DsD-YpTSYAm-1">
          <mxGeometry y="26" width="170" height="26" as="geometry" />
        </mxCell>
        <mxCell id="1zbk_YPQ8DsD-YpTSYAm-3" value="- type: Type" style="text;strokeColor=none;fillColor=none;align=left;verticalAlign=top;spacingLeft=4;spacingRight=4;overflow=hidden;rotatable=0;points=[[0,0.5],[1,0.5]];portConstraint=eastwest;whiteSpace=wrap;html=1;" vertex="1" parent="1zbk_YPQ8DsD-YpTSYAm-1">
          <mxGeometry y="52" width="170" height="26" as="geometry" />
        </mxCell>
        <mxCell id="1zbk_YPQ8DsD-YpTSYAm-4" value="" style="endArrow=block;endSize=16;endFill=0;html=1;rounded=0;" edge="1" parent="1" source="4ptxb63NITl1WysqNmvm-25" target="1zbk_YPQ8DsD-YpTSYAm-1">
          <mxGeometry width="160" relative="1" as="geometry">
            <mxPoint x="-80" y="500" as="sourcePoint" />
            <mxPoint x="80" y="500" as="targetPoint" />
          </mxGeometry>
        </mxCell>
        <mxCell id="1zbk_YPQ8DsD-YpTSYAm-6" value="Statement" style="swimlane;fontStyle=1;align=center;verticalAlign=top;childLayout=stackLayout;horizontal=1;startSize=26;horizontalStack=0;resizeParent=1;resizeParentMax=0;resizeLast=0;collapsible=1;marginBottom=0;whiteSpace=wrap;html=1;" vertex="1" parent="1">
          <mxGeometry x="830" y="370.5" width="200" height="52" as="geometry" />
        </mxCell>
        <mxCell id="1zbk_YPQ8DsD-YpTSYAm-9" value="" style="endArrow=block;endSize=16;endFill=0;html=1;rounded=0;" edge="1" parent="1" source="4ptxb63NITl1WysqNmvm-11" target="4ptxb63NITl1WysqNmvm-46">
          <mxGeometry width="160" relative="1" as="geometry">
            <mxPoint x="670" y="882" as="sourcePoint" />
            <mxPoint x="670" y="780" as="targetPoint" />
          </mxGeometry>
        </mxCell>
        <mxCell id="1zbk_YPQ8DsD-YpTSYAm-12" value="" style="endArrow=block;endSize=16;endFill=0;html=1;rounded=0;" edge="1" parent="1" source="4ptxb63NITl1WysqNmvm-46" target="1zbk_YPQ8DsD-YpTSYAm-6">
          <mxGeometry width="160" relative="1" as="geometry">
            <mxPoint x="890" y="612.79" as="sourcePoint" />
            <mxPoint x="990" y="589.79" as="targetPoint" />
          </mxGeometry>
        </mxCell>
        <mxCell id="1zbk_YPQ8DsD-YpTSYAm-13" value="" style="endArrow=block;endSize=16;endFill=0;html=1;rounded=0;" edge="1" parent="1" source="4ptxb63NITl1WysqNmvm-64" target="1zbk_YPQ8DsD-YpTSYAm-6">
          <mxGeometry width="160" relative="1" as="geometry">
            <mxPoint x="890" y="612.79" as="sourcePoint" />
            <mxPoint x="990" y="589.79" as="targetPoint" />
          </mxGeometry>
        </mxCell>
        <mxCell id="1zbk_YPQ8DsD-YpTSYAm-14" value="" style="endArrow=block;endSize=16;endFill=0;html=1;rounded=0;" edge="1" parent="1" source="8bszGqZw27wdrgXrDl6J-1" target="1zbk_YPQ8DsD-YpTSYAm-6">
          <mxGeometry width="160" relative="1" as="geometry">
            <mxPoint x="890" y="612.79" as="sourcePoint" />
            <mxPoint x="990" y="589.79" as="targetPoint" />
          </mxGeometry>
        </mxCell>
        <mxCell id="1zbk_YPQ8DsD-YpTSYAm-15" value="" style="endArrow=block;endSize=16;endFill=0;html=1;rounded=0;" edge="1" parent="1" source="4ptxb63NITl1WysqNmvm-62" target="1zbk_YPQ8DsD-YpTSYAm-6">
          <mxGeometry width="160" relative="1" as="geometry">
            <mxPoint x="890" y="612.79" as="sourcePoint" />
            <mxPoint x="990" y="589.79" as="targetPoint" />
          </mxGeometry>
        </mxCell>
        <mxCell id="1zbk_YPQ8DsD-YpTSYAm-16" value="" style="endArrow=block;endSize=16;endFill=0;html=1;rounded=0;" edge="1" parent="1" source="4ptxb63NITl1WysqNmvm-68" target="1zbk_YPQ8DsD-YpTSYAm-6">
          <mxGeometry width="160" relative="1" as="geometry">
            <mxPoint x="890" y="612.79" as="sourcePoint" />
            <mxPoint x="990" y="589.79" as="targetPoint" />
          </mxGeometry>
        </mxCell>
        <mxCell id="1zbk_YPQ8DsD-YpTSYAm-17" value="" style="endArrow=block;endSize=16;endFill=0;html=1;rounded=0;" edge="1" parent="1" source="4ptxb63NITl1WysqNmvm-29" target="1zbk_YPQ8DsD-YpTSYAm-6">
          <mxGeometry width="160" relative="1" as="geometry">
            <mxPoint x="890" y="612.79" as="sourcePoint" />
            <mxPoint x="990" y="589.79" as="targetPoint" />
          </mxGeometry>
        </mxCell>
        <mxCell id="1zbk_YPQ8DsD-YpTSYAm-18" value="Expression" style="swimlane;fontStyle=1;align=center;verticalAlign=top;childLayout=stackLayout;horizontal=1;startSize=26;horizontalStack=0;resizeParent=1;resizeParentMax=0;resizeLast=0;collapsible=1;marginBottom=0;whiteSpace=wrap;html=1;" vertex="1" parent="1">
          <mxGeometry x="100" y="1210" width="160" height="50" as="geometry" />
        </mxCell>
        <mxCell id="1zbk_YPQ8DsD-YpTSYAm-19" value="+ type: Type" style="text;strokeColor=none;fillColor=none;align=left;verticalAlign=top;spacingLeft=4;spacingRight=4;overflow=hidden;rotatable=0;points=[[0,0.5],[1,0.5]];portConstraint=eastwest;whiteSpace=wrap;html=1;" vertex="1" parent="1zbk_YPQ8DsD-YpTSYAm-18">
          <mxGeometry y="26" width="160" height="24" as="geometry" />
        </mxCell>
        <mxCell id="1zbk_YPQ8DsD-YpTSYAm-21" value="" style="endArrow=diamondThin;endFill=1;endSize=24;html=1;rounded=0;" edge="1" parent="1" source="1zbk_YPQ8DsD-YpTSYAm-18" target="4ptxb63NITl1WysqNmvm-25">
          <mxGeometry width="160" relative="1" as="geometry">
            <mxPoint x="539.28" y="740.5" as="sourcePoint" />
            <mxPoint x="140.27999999999997" y="1057.5" as="targetPoint" />
          </mxGeometry>
        </mxCell>
        <mxCell id="1zbk_YPQ8DsD-YpTSYAm-22" value="" style="endArrow=diamondThin;endFill=1;endSize=24;html=1;rounded=0;" edge="1" parent="1" source="1zbk_YPQ8DsD-YpTSYAm-18" target="4ptxb63NITl1WysqNmvm-64">
          <mxGeometry width="160" relative="1" as="geometry">
            <mxPoint x="539.28" y="740.5" as="sourcePoint" />
            <mxPoint x="140.27999999999997" y="1057.5" as="targetPoint" />
          </mxGeometry>
        </mxCell>
        <mxCell id="1zbk_YPQ8DsD-YpTSYAm-23" value="MemberExpression" style="swimlane;fontStyle=1;align=center;verticalAlign=top;childLayout=stackLayout;horizontal=1;startSize=26;horizontalStack=0;resizeParent=1;resizeParentMax=0;resizeLast=0;collapsible=1;marginBottom=0;whiteSpace=wrap;html=1;" vertex="1" parent="1">
          <mxGeometry x="490" y="1334" width="160" height="104" as="geometry" />
        </mxCell>
        <mxCell id="1zbk_YPQ8DsD-YpTSYAm-24" value="+ id: Identifier" style="text;strokeColor=none;fillColor=none;align=left;verticalAlign=top;spacingLeft=4;spacingRight=4;overflow=hidden;rotatable=0;points=[[0,0.5],[1,0.5]];portConstraint=eastwest;whiteSpace=wrap;html=1;" vertex="1" parent="1zbk_YPQ8DsD-YpTSYAm-23">
          <mxGeometry y="26" width="160" height="24" as="geometry" />
        </mxCell>
        <mxCell id="1zbk_YPQ8DsD-YpTSYAm-25" value="+ index: ?Expression" style="text;strokeColor=none;fillColor=none;align=left;verticalAlign=top;spacingLeft=4;spacingRight=4;overflow=hidden;rotatable=0;points=[[0,0.5],[1,0.5]];portConstraint=eastwest;whiteSpace=wrap;html=1;" vertex="1" parent="1zbk_YPQ8DsD-YpTSYAm-23">
          <mxGeometry y="50" width="160" height="30" as="geometry" />
        </mxCell>
        <mxCell id="1zbk_YPQ8DsD-YpTSYAm-35" value="+ isRValue: bool" style="text;strokeColor=none;fillColor=none;align=left;verticalAlign=top;spacingLeft=4;spacingRight=4;overflow=hidden;rotatable=0;points=[[0,0.5],[1,0.5]];portConstraint=eastwest;whiteSpace=wrap;html=1;" vertex="1" parent="1zbk_YPQ8DsD-YpTSYAm-23">
          <mxGeometry y="80" width="160" height="24" as="geometry" />
        </mxCell>
        <mxCell id="1zbk_YPQ8DsD-YpTSYAm-26" value="" style="endArrow=block;endSize=16;endFill=0;html=1;rounded=0;" edge="1" parent="1" source="1zbk_YPQ8DsD-YpTSYAm-23" target="1zbk_YPQ8DsD-YpTSYAm-18">
          <mxGeometry width="160" relative="1" as="geometry">
            <mxPoint x="490" y="1013.39" as="sourcePoint" />
            <mxPoint x="590" y="990.39" as="targetPoint" />
          </mxGeometry>
        </mxCell>
        <mxCell id="1zbk_YPQ8DsD-YpTSYAm-27" value="" style="endArrow=diamondThin;endFill=1;endSize=24;html=1;rounded=0;" edge="1" parent="1" source="1zbk_YPQ8DsD-YpTSYAm-23" target="8bszGqZw27wdrgXrDl6J-1">
          <mxGeometry width="160" relative="1" as="geometry">
            <mxPoint x="539.28" y="740.5" as="sourcePoint" />
            <mxPoint x="140.27999999999997" y="1057.5" as="targetPoint" />
          </mxGeometry>
        </mxCell>
        <mxCell id="1zbk_YPQ8DsD-YpTSYAm-28" value="" style="endArrow=diamondThin;endFill=1;endSize=24;html=1;rounded=0;" edge="1" parent="1" source="1zbk_YPQ8DsD-YpTSYAm-18" target="4ptxb63NITl1WysqNmvm-62">
          <mxGeometry width="160" relative="1" as="geometry">
            <mxPoint x="539.28" y="740.5" as="sourcePoint" />
            <mxPoint x="140.27999999999997" y="1057.5" as="targetPoint" />
            <Array as="points">
              <mxPoint x="1500" y="1240" />
              <mxPoint x="1500" y="600" />
            </Array>
          </mxGeometry>
        </mxCell>
        <mxCell id="1zbk_YPQ8DsD-YpTSYAm-29" value="" style="endArrow=diamondThin;endFill=1;endSize=24;html=1;rounded=0;" edge="1" parent="1" source="4ptxb63NITl1WysqNmvm-46" target="4ptxb63NITl1WysqNmvm-29">
          <mxGeometry width="160" relative="1" as="geometry">
            <mxPoint x="744.71" y="1050.5" as="sourcePoint" />
            <mxPoint x="1189.71" y="447.5" as="targetPoint" />
          </mxGeometry>
        </mxCell>
        <mxCell id="1zbk_YPQ8DsD-YpTSYAm-30" value="" style="endArrow=diamondThin;endFill=1;endSize=24;html=1;rounded=0;" edge="1" parent="1" source="4ptxb63NITl1WysqNmvm-46" target="4ptxb63NITl1WysqNmvm-64">
          <mxGeometry width="160" relative="1" as="geometry">
            <mxPoint x="744.71" y="1050.5" as="sourcePoint" />
            <mxPoint x="1189.71" y="447.5" as="targetPoint" />
          </mxGeometry>
        </mxCell>
        <mxCell id="1zbk_YPQ8DsD-YpTSYAm-31" value="" style="endArrow=diamondThin;endFill=1;endSize=24;html=1;rounded=0;" edge="1" parent="1" source="1zbk_YPQ8DsD-YpTSYAm-18" target="4ptxb63NITl1WysqNmvm-29">
          <mxGeometry width="160" relative="1" as="geometry">
            <mxPoint x="539.28" y="740.5" as="sourcePoint" />
            <mxPoint x="140.27999999999997" y="1057.5" as="targetPoint" />
          </mxGeometry>
        </mxCell>
        <mxCell id="1zbk_YPQ8DsD-YpTSYAm-32" value="" style="endArrow=diamondThin;endFill=1;endSize=24;html=1;rounded=0;exitX=1;exitY=0.5;exitDx=0;exitDy=0;" edge="1" parent="1" source="1zbk_YPQ8DsD-YpTSYAm-19" target="4ptxb63NITl1WysqNmvm-68">
          <mxGeometry width="160" relative="1" as="geometry">
            <mxPoint x="260" y="1145" as="sourcePoint" />
            <mxPoint x="1410" y="510" as="targetPoint" />
            <Array as="points">
              <mxPoint x="1630" y="1260" />
              <mxPoint x="1630" y="450" />
            </Array>
          </mxGeometry>
        </mxCell>
        <mxCell id="1zbk_YPQ8DsD-YpTSYAm-36" value="" style="endArrow=block;endSize=16;endFill=0;html=1;rounded=0;" edge="1" parent="1" source="4ptxb63NITl1WysqNmvm-35" target="1zbk_YPQ8DsD-YpTSYAm-18">
          <mxGeometry width="160" relative="1" as="geometry">
            <mxPoint x="490" y="1013.39" as="sourcePoint" />
            <mxPoint x="590" y="990.39" as="targetPoint" />
          </mxGeometry>
        </mxCell>
        <mxCell id="1zbk_YPQ8DsD-YpTSYAm-37" value="" style="endArrow=diamondThin;endFill=1;endSize=24;html=1;rounded=0;entryX=0.131;entryY=-0.033;entryDx=0;entryDy=0;exitX=0.475;exitY=1.125;exitDx=0;exitDy=0;exitPerimeter=0;entryPerimeter=0;" edge="1" parent="1" source="1zbk_YPQ8DsD-YpTSYAm-19" target="4ptxb63NITl1WysqNmvm-35">
          <mxGeometry width="160" relative="1" as="geometry">
            <mxPoint x="528.1700000000001" y="1198" as="sourcePoint" />
            <mxPoint x="-29.829999999999984" y="1496" as="targetPoint" />
          </mxGeometry>
        </mxCell>
        <mxCell id="1zbk_YPQ8DsD-YpTSYAm-38" value="" style="endArrow=block;endSize=16;endFill=0;html=1;rounded=0;" edge="1" parent="1" source="4ptxb63NITl1WysqNmvm-52" target="1zbk_YPQ8DsD-YpTSYAm-18">
          <mxGeometry width="160" relative="1" as="geometry">
            <mxPoint x="490" y="1013.39" as="sourcePoint" />
            <mxPoint x="590" y="990.39" as="targetPoint" />
          </mxGeometry>
        </mxCell>
        <mxCell id="1zbk_YPQ8DsD-YpTSYAm-39" value="" style="endArrow=diamondThin;endFill=1;endSize=24;html=1;rounded=0;entryX=0.992;entryY=0.163;entryDx=0;entryDy=0;exitX=0;exitY=0.25;exitDx=0;exitDy=0;entryPerimeter=0;" edge="1" parent="1" source="1zbk_YPQ8DsD-YpTSYAm-18" target="4ptxb63NITl1WysqNmvm-52">
          <mxGeometry width="160" relative="1" as="geometry">
            <mxPoint x="-52" y="998" as="sourcePoint" />
            <mxPoint x="-90" y="1240" as="targetPoint" />
          </mxGeometry>
        </mxCell>
        <mxCell id="1zbk_YPQ8DsD-YpTSYAm-40" value="" style="endArrow=diamondThin;endFill=1;endSize=24;html=1;rounded=0;entryX=0.5;entryY=0;entryDx=0;entryDy=0;" edge="1" parent="1" source="4ptxb63NITl1WysqNmvm-46" target="4ptxb63NITl1WysqNmvm-52">
          <mxGeometry width="160" relative="1" as="geometry">
            <mxPoint x="-52" y="998" as="sourcePoint" />
            <mxPoint x="-90" y="1240" as="targetPoint" />
          </mxGeometry>
        </mxCell>
        <mxCell id="1zbk_YPQ8DsD-YpTSYAm-41" value="" style="endArrow=block;endSize=16;endFill=0;html=1;rounded=0;" edge="1" parent="1" source="4ptxb63NITl1WysqNmvm-54" target="1zbk_YPQ8DsD-YpTSYAm-18">
          <mxGeometry width="160" relative="1" as="geometry">
            <mxPoint x="490" y="1013.39" as="sourcePoint" />
            <mxPoint x="590" y="990.39" as="targetPoint" />
          </mxGeometry>
        </mxCell>
        <mxCell id="1zbk_YPQ8DsD-YpTSYAm-43" value="" style="endArrow=block;endSize=16;endFill=0;html=1;rounded=0;exitX=1;exitY=0.5;exitDx=0;exitDy=0;" edge="1" parent="1" source="4ptxb63NITl1WysqNmvm-49" target="1zbk_YPQ8DsD-YpTSYAm-18">
          <mxGeometry width="160" relative="1" as="geometry">
            <mxPoint x="490" y="1013.39" as="sourcePoint" />
            <mxPoint x="590" y="990.39" as="targetPoint" />
          </mxGeometry>
        </mxCell>
        <mxCell id="1zbk_YPQ8DsD-YpTSYAm-44" value="" style="endArrow=diamondThin;endFill=1;endSize=24;html=1;rounded=0;" edge="1" parent="1" target="4ptxb63NITl1WysqNmvm-48">
          <mxGeometry width="160" relative="1" as="geometry">
            <mxPoint x="99" y="1260" as="sourcePoint" />
            <mxPoint x="-90" y="1240" as="targetPoint" />
          </mxGeometry>
        </mxCell>
        <mxCell id="1zbk_YPQ8DsD-YpTSYAm-45" value="" style="endArrow=diamondThin;endFill=1;endSize=24;html=1;rounded=0;entryX=0.5;entryY=0;entryDx=0;entryDy=0;exitX=0.288;exitY=1.083;exitDx=0;exitDy=0;exitPerimeter=0;" edge="1" parent="1" source="1zbk_YPQ8DsD-YpTSYAm-19" target="4ptxb63NITl1WysqNmvm-66">
          <mxGeometry width="160" relative="1" as="geometry">
            <mxPoint x="140" y="1356.68" as="sourcePoint" />
            <mxPoint x="-79" y="1479.68" as="targetPoint" />
          </mxGeometry>
        </mxCell>
        <mxCell id="1zbk_YPQ8DsD-YpTSYAm-46" value="" style="endArrow=block;endSize=16;endFill=0;html=1;rounded=0;" edge="1" parent="1" source="4ptxb63NITl1WysqNmvm-66" target="1zbk_YPQ8DsD-YpTSYAm-18">
          <mxGeometry width="160" relative="1" as="geometry">
            <mxPoint x="490" y="1013.39" as="sourcePoint" />
            <mxPoint x="590" y="990.39" as="targetPoint" />
          </mxGeometry>
        </mxCell>
        <mxCell id="1zbk_YPQ8DsD-YpTSYAm-47" value="&lt;div&gt;&amp;lt;&amp;lt;interface&amp;gt;&amp;gt;&lt;/div&gt;Entity" style="swimlane;fontStyle=1;align=center;verticalAlign=top;childLayout=stackLayout;horizontal=1;startSize=42;horizontalStack=0;resizeParent=1;resizeParentMax=0;resizeLast=0;collapsible=1;marginBottom=0;whiteSpace=wrap;html=1;" vertex="1" parent="1">
          <mxGeometry x="300" y="660" width="250" height="68" as="geometry" />
        </mxCell>
        <mxCell id="1zbk_YPQ8DsD-YpTSYAm-48" value="+ Generate(generator: CodeGenerator): void" style="text;strokeColor=none;fillColor=none;align=left;verticalAlign=top;spacingLeft=4;spacingRight=4;overflow=hidden;rotatable=0;points=[[0,0.5],[1,0.5]];portConstraint=eastwest;whiteSpace=wrap;html=1;" vertex="1" parent="1zbk_YPQ8DsD-YpTSYAm-47">
          <mxGeometry y="42" width="250" height="26" as="geometry" />
        </mxCell>
        <mxCell id="1zbk_YPQ8DsD-YpTSYAm-49" value="" style="endArrow=block;endSize=16;endFill=0;html=1;rounded=0;" edge="1" parent="1" source="1zbk_YPQ8DsD-YpTSYAm-6" target="1zbk_YPQ8DsD-YpTSYAm-47">
          <mxGeometry width="160" relative="1" as="geometry">
            <mxPoint x="550.06" y="504" as="sourcePoint" />
            <mxPoint x="749.06" y="612" as="targetPoint" />
          </mxGeometry>
        </mxCell>
        <mxCell id="1zbk_YPQ8DsD-YpTSYAm-50" value="" style="endArrow=block;endSize=16;endFill=0;html=1;rounded=0;" edge="1" parent="1" source="1zbk_YPQ8DsD-YpTSYAm-1" target="1zbk_YPQ8DsD-YpTSYAm-47">
          <mxGeometry width="160" relative="1" as="geometry">
            <mxPoint x="620" y="450" as="sourcePoint" />
            <mxPoint x="483" y="660" as="targetPoint" />
          </mxGeometry>
        </mxCell>
        <mxCell id="1zbk_YPQ8DsD-YpTSYAm-51" value="" style="endArrow=block;endSize=16;endFill=0;html=1;rounded=0;" edge="1" parent="1" source="1zbk_YPQ8DsD-YpTSYAm-18" target="1zbk_YPQ8DsD-YpTSYAm-47">
          <mxGeometry width="160" relative="1" as="geometry">
            <mxPoint x="230" y="890" as="sourcePoint" />
            <mxPoint x="379" y="660" as="targetPoint" />
          </mxGeometry>
        </mxCell>
      </root>
    </mxGraphModel>
  </diagram>
</mxfile>
